<svg width="24" height="24" viewBox="0 0 24 24" fill="none" xmlns="http://www.w3.org/2000/svg">
<path d="M12 22V17" stroke="black" style="stroke:black;stroke-opacity:1;" stroke-width="2" stroke-linecap="round" stroke-linejoin="round"/>
<path d="M15 8V2" stroke="black" style="stroke:black;stroke-opacity:1;" stroke-width="2" stroke-linecap="round" stroke-linejoin="round"/>
<path d="M17 8C17.2652 8 17.5196 8.10536 17.7071 8.29289C17.8946 8.48043 18 8.73478 18 9V13C18 14.0609 17.5786 15.0783 16.8284 15.8284C16.0783 16.5786 15.0609 17 14 17H10C8.93913 17 7.92172 16.5786 7.17157 15.8284C6.42143 15.0783 6 14.0609 6 13V9C6 8.73478 6.10536 8.48043 6.29289 8.29289C6.48043 8.10536 6.73478 8 7 8H17Z" stroke="black" style="stroke:black;stroke-opacity:1;" stroke-width="2" stroke-linecap="round" stroke-linejoin="round"/>
<path opacity="0.15" d="M17 8C17.2652 8 17.5196 8.10536 17.7071 8.29289C17.8946 8.48043 18 8.73478 18 9V13C18 14.0609 17.5786 15.0783 16.8284 15.8284C16.0783 16.5786 15.0609 17 14 17H10C8.93913 17 7.92172 16.5786 7.17157 15.8284C6.42143 15.0783 6 14.0609 6 13V9C6 8.73478 6.10536 8.48043 6.29289 8.29289C6.48043 8.10536 6.73478 8 7 8H17Z" fill="black" style="fill:black;fill-opacity:1;"/>
<path d="M9 8V2" stroke="black" style="stroke:black;stroke-opacity:1;" stroke-width="2" stroke-linecap="round" stroke-linejoin="round"/>
</svg>
