<svg width="24" height="24" viewBox="0 0 24 24" fill="none" xmlns="http://www.w3.org/2000/svg">
<path fill-rule="evenodd" clip-rule="evenodd" d="M1.29297 1.29305C1.68349 0.902521 2.31651 0.902521 2.70703 1.29305L22.707 21.293C23.0975 21.6836 23.0975 22.3166 22.707 22.7071C22.3165 23.0976 21.6835 23.0976 21.293 22.7071L19.5889 21.003H4C3.20437 21.003 2.44151 20.6867 1.87891 20.1241C1.31645 19.5615 1.00003 18.7985 1 18.003V9.00301C1.00012 8.20754 1.31644 7.44441 1.87891 6.88191C2.44149 6.31944 3.20445 6.00301 4 6.00301H4.58887L1.29297 2.70711C0.902459 2.3166 0.902489 1.68357 1.29297 1.29305ZM8.97363 10.3878C8.85196 10.5287 8.73908 10.6777 8.6377 10.835C8.30967 11.3443 8.10073 11.9221 8.02832 12.5235C7.95601 13.1251 8.02174 13.736 8.21973 14.3087C8.41777 14.8813 8.74339 15.4017 9.17188 15.8302C9.60039 16.2586 10.1207 16.5844 10.6934 16.7823C11.2661 16.9802 11.8768 17.0452 12.4785 16.9727C13.0801 16.9002 13.6576 16.6916 14.167 16.3634C14.3241 16.2621 14.4716 16.148 14.6123 16.0264L13.1895 14.6036C13.154 14.6299 13.1202 14.6587 13.083 14.6827C12.8284 14.8467 12.5399 14.9512 12.2393 14.9874C11.9384 15.0236 11.6331 14.9906 11.3467 14.8917C11.0604 14.7927 10.8001 14.6302 10.5859 14.4161C10.3718 14.2019 10.2084 13.9416 10.1094 13.6554C10.0104 13.3691 9.97851 13.0635 10.0146 12.7628C10.0508 12.462 10.1543 12.1727 10.3184 11.918C10.3424 11.8808 10.3701 11.8461 10.3965 11.8106L8.97363 10.3878Z" fill="black" style="fill:black;fill-opacity:1;"/>
<path d="M13.9971 3.00008C14.5382 3.00007 15.0694 3.14665 15.5342 3.42391C15.9989 3.70118 16.3806 4.09905 16.6377 4.57527L17.123 5.47469C17.2087 5.6334 17.3363 5.76606 17.4912 5.85848C17.646 5.95081 17.8227 6.00001 18.0029 6.00008H20C20.7956 6.00008 21.5595 6.31637 22.1221 6.87898C22.6844 7.44156 23 8.2046 23 9.00008V16.3438C23 16.7483 22.7565 17.1129 22.3828 17.2677C22.0091 17.4223 21.5789 17.3369 21.293 17.0509L8.9873 4.73055C8.72167 4.46433 8.62846 4.07149 8.74512 3.71394C8.86187 3.35624 9.16925 3.09433 9.54102 3.03621C9.69416 3.01228 9.8489 3.00009 10.0039 3.00008H13.9971Z" fill="black" style="fill:black;fill-opacity:1;"/>
</svg>
