<svg width="24" height="24" viewBox="0 0 24 24" fill="none" xmlns="http://www.w3.org/2000/svg">
<path d="M15 14C15.5523 14 16 14.4477 16 15V16.1738C17.1647 16.5859 18 17.6941 18 19C18 20.6569 16.6569 22 15 22C13.3431 22 12 20.6569 12 19C12 17.6941 12.8353 16.5859 14 16.1738V15C14 14.4477 14.4477 14 15 14Z" fill="black" style="fill:black;fill-opacity:1;"/>
<path d="M7.92969 2C8.42628 2.00008 8.91537 2.12381 9.35254 2.35938C9.78972 2.59498 10.1624 2.93486 10.4355 3.34961L11.2393 4.54004L11.2451 4.5498C11.3371 4.68949 11.4627 4.8042 11.6104 4.88281C11.7579 4.96136 11.9227 5.00158 12.0898 5H20C20.7957 5 21.5585 5.3163 22.1211 5.87891C22.6837 6.44151 23 7.20435 23 8V17.9932L22.9941 18.2021C22.9636 18.6883 22.8147 19.1607 22.5596 19.5781C22.268 20.0552 21.8489 20.4418 21.3496 20.6934C21.2153 20.761 21.0674 20.7972 20.917 20.7998L19.6562 20.8203C19.877 20.256 20 19.6425 20 19C20 17.3643 19.2143 15.9122 18 15V10C18 8.34315 16.6569 7 15 7C13.3431 7 12 8.34315 12 10V15C10.7857 15.9122 10 17.3643 10 19C10 19.7024 10.1448 20.371 10.4062 20.9775L9.11719 21H4C3.20435 21 2.44151 20.6837 1.87891 20.1211C1.3163 19.5585 1 18.7956 1 18V5C1 4.20435 1.3163 3.44152 1.87891 2.87891C2.44152 2.3163 3.20435 2 4 2H7.92969Z" fill="black" style="fill:black;fill-opacity:1;"/>
<path d="M15 9C15.5523 9 16 9.44772 16 10V11C16 11.5523 15.5523 12 15 12C14.4477 12 14 11.5523 14 11V10C14 9.44772 14.4477 9 15 9Z" fill="black" style="fill:black;fill-opacity:1;"/>
</svg>
